<?xml version="1.0" encoding="utf-8"?>
<!-- Generator: Adobe Illustrator 15.1.0, SVG Export Plug-In . SVG Version: 6.00 Build 0)  -->
<!DOCTYPE svg PUBLIC "-//W3C//DTD SVG 1.1//EN" "http://www.w3.org/Graphics/SVG/1.1/DTD/svg11.dtd">
<svg version="1.1" id="Capa_1" xmlns="http://www.w3.org/2000/svg" xmlns:xlink="http://www.w3.org/1999/xlink" x="0px" y="0px"
	 width="235.275px" height="49.606px" viewBox="52.441 10.63 235.275 49.606" enable-background="new 52.441 10.63 235.275 49.606"
	 xml:space="preserve">
<g>
	<g>
		
			<radialGradient id="SVGID_1_" cx="100.9263" cy="577.0439" r="48.0179" gradientTransform="matrix(1 0 0 1 0 -540.1328)" gradientUnits="userSpaceOnUse">
			<stop  offset="0" style="stop-color:#50C8F0"/>
			<stop  offset="0.5" style="stop-color:#1F8BC7"/>
			<stop  offset="1" style="stop-color:#1A325E"/>
		</radialGradient>
		<path fill="url(#SVGID_1_)" d="M143.167,59.235H58.686c-2.853,0-5.173-2.319-5.173-5.174V16.805c0-2.853,2.32-5.173,5.173-5.173
			h84.481c2.853,0,5.173,2.319,5.173,5.173v37.257C148.34,56.915,146.02,59.235,143.167,59.235z M58.686,13.183
			c-1.997,0-3.621,1.625-3.621,3.622v37.257c0,1.997,1.624,3.622,3.621,3.622h84.481c1.997,0,3.621-1.625,3.621-3.622V16.805
			c0-1.997-1.625-3.622-3.621-3.622H58.686z"/>
	</g>
	
		<radialGradient id="SVGID_2_" cx="100.9263" cy="575.7451" r="33.7801" gradientTransform="matrix(1 0 0 1 0 -540.1328)" gradientUnits="userSpaceOnUse">
		<stop  offset="0" style="stop-color:#1F8BC7"/>
		<stop  offset="1" style="stop-color:#1A325E"/>
	</radialGradient>
	<path fill="url(#SVGID_2_)" d="M144.338,17.87c0-1.215-0.984-2.198-2.198-2.198H59.714c-1.215,0-2.199,0.983-2.199,2.198v35.483
		c0,1.214,0.984,2.199,2.199,2.199h82.426c1.214,0,2.198-0.984,2.198-2.199V17.87L144.338,17.87z"/>
	<g>
		<path fill="#FFFFFF" d="M59.945,17.665c0.367-0.276,0.824-0.442,1.319-0.442c1.215,0,2.199,0.984,2.199,2.198
			c0,0.484-0.159,0.93-0.424,1.294L59.945,17.665z"/>
		<path fill="#FFFFFF" d="M62.642,21.134c-0.377,0.304-0.855,0.486-1.377,0.486c-1.214,0-2.199-0.984-2.199-2.199
			c0-0.51,0.176-0.978,0.467-1.351L62.642,21.134z"/>
	</g>
	<g>
		<path fill="#FFFFFF" d="M59.509,52.652c-0.277-0.367-0.442-0.823-0.442-1.319c0-1.213,0.984-2.199,2.198-2.199
			c0.483,0,0.93,0.159,1.293,0.423L59.509,52.652z"/>
		<path fill="#FFFFFF" d="M62.978,49.957c0.303,0.377,0.485,0.854,0.485,1.376c0,1.215-0.984,2.2-2.199,2.2
			c-0.51,0-0.978-0.175-1.351-0.467L62.978,49.957z"/>
	</g>
	<g>
		<path fill="#FFFFFF" d="M138.833,50.015c-0.277,0.368-0.443,0.823-0.443,1.318c0,1.215,0.984,2.2,2.198,2.2
			c0.483,0,0.931-0.159,1.294-0.423L138.833,50.015z"/>
		<path fill="#FFFFFF" d="M142.301,52.712c0.304-0.378,0.486-0.857,0.486-1.379c0-1.213-0.984-2.199-2.199-2.199
			c-0.51,0-0.978,0.176-1.351,0.467L142.301,52.712z"/>
	</g>
	<g>
		<path fill="#FFFFFF" d="M138.833,20.74c-0.277-0.368-0.443-0.823-0.443-1.319c0-1.214,0.984-2.199,2.198-2.199
			c0.483,0,0.931,0.158,1.294,0.424L138.833,20.74z"/>
		<path fill="#FFFFFF" d="M142.301,18.044c0.304,0.377,0.486,0.855,0.486,1.377c0,1.214-0.984,2.198-2.199,2.198
			c-0.51,0-0.978-0.175-1.351-0.467L142.301,18.044z"/>
	</g>
	<g enable-background="new    ">
		<path fill="#FFFFFF" d="M155.131,29.604h1.392l2.508,6.255h-1.425l-0.403-1.022h-2.816l-0.402,1.022h-1.342L155.131,29.604z
			 M156.767,33.704l-0.973-2.474l-0.973,2.474H156.767z"/>
		<path fill="#FFFFFF" d="M159.182,32.748c0-2.23,1.216-3.203,3.278-3.203c1.133,0,1.854,0.303,2.439,0.896l-0.947,0.948
			c-0.378-0.368-0.822-0.587-1.501-0.587c-1.325,0-1.887,0.671-1.887,1.963c0,1.249,0.469,1.962,1.896,1.962
			c0.805,0,1.19-0.269,1.576-0.629l0.905,0.889c-0.495,0.512-1.157,0.965-2.566,0.965C160.054,35.951,159.182,34.803,159.182,32.748
			z"/>
		<path fill="#FFFFFF" d="M165.345,32.748c0-2.23,1.216-3.203,3.278-3.203c1.132,0,1.854,0.303,2.44,0.896l-0.948,0.948
			c-0.377-0.368-0.821-0.587-1.501-0.587c-1.325,0-1.886,0.671-1.886,1.963c0,1.249,0.469,1.962,1.895,1.962
			c0.805,0,1.19-0.269,1.576-0.629l0.905,0.889c-0.494,0.512-1.157,0.965-2.566,0.965C166.217,35.951,165.345,34.803,165.345,32.748
			z"/>
		<path fill="#FFFFFF" d="M172.044,29.646h4.67v1.24h-3.295v1.208h3.211v1.199h-3.211v1.375h3.328v1.19h-4.703V29.646z"/>
		<path fill="#FFFFFF" d="M177.269,35.138l0.688-0.989c0.662,0.444,1.434,0.662,2.23,0.662c1.215,0,1.441-0.235,1.441-0.755
			c0-0.511-0.52-0.611-1.475-0.746c-1.66-0.234-2.523-0.537-2.523-1.886c0-1.384,0.84-1.879,2.59-1.879
			c1.268,0,2.039,0.294,2.516,0.612l-0.738,1.064c-0.393-0.26-1.121-0.478-1.793-0.478c-0.973,0-1.207,0.192-1.207,0.646
			c0,0.503,0.51,0.595,1.502,0.738c1.492,0.218,2.488,0.46,2.488,1.861c0,1.258-0.688,1.962-2.758,1.962
			C178.995,35.951,177.974,35.657,177.269,35.138z"/>
		<path fill="#FFFFFF" d="M183.456,32.748c0-2.33,1.309-3.203,3.287-3.203s3.295,0.873,3.295,3.203c0,2.34-1.316,3.212-3.295,3.212
			S183.456,35.087,183.456,32.748z M188.647,32.772c0-1.215-0.479-1.97-1.904-1.97s-1.902,0.755-1.902,1.97
			c0,1.217,0.477,1.979,1.902,1.979S188.647,33.989,188.647,32.772z"/>
		<path fill="#FFFFFF" d="M193.679,33.796h-1.393v2.063h-1.342v-6.213h3.002c1.953,0,2.424,0.839,2.424,2.028
			c0,0.856-0.277,1.645-1.309,1.971l1.232,2.214h-1.467L193.679,33.796z M193.905,32.613c0.744,0,1.08-0.185,1.08-0.889
			c0-0.721-0.318-0.906-1.098-0.906h-1.602v1.794L193.905,32.613L193.905,32.613z"/>
		<path fill="#FFFFFF" d="M197.511,29.646h1.367v6.213h-1.367V29.646z"/>
		<path fill="#FFFFFF" d="M199.876,32.748c0-2.33,1.307-3.203,3.285-3.203s3.295,0.873,3.295,3.203c0,2.34-1.316,3.212-3.295,3.212
			S199.876,35.087,199.876,32.748z M205.065,32.772c0-1.215-0.479-1.97-1.904-1.97s-1.904,0.755-1.904,1.97
			c0,1.217,0.479,1.979,1.904,1.979S205.065,33.989,205.065,32.772z"/>
		<path fill="#FFFFFF" d="M206.802,35.138l0.686-0.989c0.662,0.444,1.436,0.662,2.232,0.662c1.215,0,1.441-0.235,1.441-0.755
			c0-0.511-0.52-0.611-1.477-0.746c-1.66-0.234-2.521-0.537-2.521-1.886c0-1.384,0.838-1.879,2.59-1.879
			c1.266,0,2.037,0.294,2.516,0.612l-0.738,1.064c-0.393-0.26-1.123-0.478-1.793-0.478c-0.973,0-1.209,0.192-1.209,0.646
			c0,0.503,0.512,0.595,1.502,0.738c1.492,0.218,2.49,0.46,2.49,1.861c0,1.258-0.688,1.962-2.758,1.962
			C208.528,35.951,207.505,35.657,206.802,35.138z"/>
		<path fill="#FFFFFF" d="M218.858,29.646h4.67v1.24h-3.295v1.208h3.213v1.199h-3.213v1.375h3.33v1.19h-4.705V29.646z"/>
		<path fill="#FFFFFF" d="M224.083,35.138l0.688-0.989c0.662,0.444,1.434,0.662,2.23,0.662c1.215,0,1.441-0.235,1.441-0.755
			c0-0.511-0.52-0.611-1.475-0.746c-1.66-0.234-2.523-0.537-2.523-1.886c0-1.384,0.838-1.879,2.592-1.879
			c1.266,0,2.037,0.294,2.514,0.612l-0.736,1.064c-0.395-0.26-1.125-0.478-1.795-0.478c-0.973,0-1.207,0.192-1.207,0.646
			c0,0.503,0.51,0.595,1.5,0.738c1.494,0.218,2.492,0.46,2.492,1.861c0,1.258-0.688,1.962-2.76,1.962
			C225.81,35.951,224.786,35.657,224.083,35.138z"/>
		<path fill="#FFFFFF" d="M232.114,30.887h-2.154v-1.24h5.686v1.24h-2.146v4.973h-1.385V30.887z"/>
		<path fill="#FFFFFF" d="M239.118,33.796h-1.393v2.063h-1.342v-6.213h3.002c1.953,0,2.422,0.839,2.422,2.028
			c0,0.856-0.275,1.645-1.307,1.971l1.232,2.214h-1.467L239.118,33.796z M239.343,32.613c0.746,0,1.082-0.185,1.082-0.889
			c0-0.721-0.318-0.906-1.098-0.906h-1.602v1.794L239.343,32.613L239.343,32.613z"/>
		<path fill="#FFFFFF" d="M242.731,33.485v-3.84h1.375v3.664c0,0.922,0.227,1.45,1.484,1.45c1.248,0,1.492-0.494,1.492-1.45v-3.664
			h1.332v3.84c0,1.191-0.225,2.491-2.842,2.491C242.948,35.977,242.731,34.677,242.731,33.485z"/>
		<path fill="#FFFFFF" d="M249.237,32.748c0-2.23,1.217-3.203,3.279-3.203c1.131,0,1.854,0.303,2.439,0.896l-0.947,0.948
			c-0.377-0.368-0.822-0.587-1.502-0.587c-1.324,0-1.885,0.671-1.885,1.963c0,1.249,0.469,1.962,1.895,1.962
			c0.803,0,1.189-0.269,1.576-0.629l0.906,0.889c-0.496,0.512-1.158,0.965-2.566,0.965C250.11,35.951,249.237,34.803,249.237,32.748
			z"/>
		<path fill="#FFFFFF" d="M257.507,30.887h-2.154v-1.24h5.684v1.24h-2.146v4.973h-1.383V30.887z"/>
		<path fill="#FFFFFF" d="M261.731,33.485v-3.84h1.377v3.664c0,0.922,0.225,1.45,1.482,1.45c1.25,0,1.494-0.494,1.494-1.45v-3.664
			h1.332v3.84c0,1.191-0.227,2.491-2.842,2.491C261.95,35.977,261.731,34.677,261.731,33.485z"/>
		<path fill="#FFFFFF" d="M271.349,33.796h-1.391v2.063h-1.342v-6.213h3.002c1.953,0,2.424,0.839,2.424,2.028
			c0,0.856-0.277,1.645-1.309,1.971l1.232,2.214h-1.467L271.349,33.796z M271.575,32.613c0.746,0,1.082-0.185,1.082-0.889
			c0-0.721-0.318-0.906-1.098-0.906h-1.602v1.794L271.575,32.613L271.575,32.613z"/>
		<path fill="#FFFFFF" d="M276.909,29.604h1.393l2.506,6.255h-1.426l-0.4-1.022h-2.818l-0.402,1.022h-1.342L276.909,29.604z
			 M278.544,33.704l-0.973-2.474l-0.973,2.474H278.544z"/>
		<path fill="#FFFFFF" d="M280.927,35.138l0.686-0.989c0.664,0.444,1.434,0.662,2.232,0.662c1.215,0,1.441-0.235,1.441-0.755
			c0-0.511-0.52-0.611-1.477-0.746c-1.658-0.234-2.521-0.537-2.521-1.886c0-1.384,0.838-1.879,2.59-1.879
			c1.268,0,2.037,0.294,2.516,0.612l-0.738,1.064c-0.395-0.26-1.123-0.478-1.793-0.478c-0.973,0-1.207,0.192-1.207,0.646
			c0,0.503,0.51,0.595,1.5,0.738c1.492,0.218,2.49,0.46,2.49,1.861c0,1.258-0.688,1.962-2.758,1.962
			C282.653,35.951,281.63,35.657,280.927,35.138z"/>
	</g>
	<g enable-background="new    ">
		<path fill="#FFFFFF" d="M168.954,40.328h1.392l2.507,6.255h-1.424l-0.404-1.022h-2.816l-0.402,1.022h-1.342L168.954,40.328z
			 M170.589,44.429l-0.973-2.475l-0.972,2.475H170.589z"/>
		<path fill="#FFFFFF" d="M173.005,43.472c0-2.23,1.215-3.202,3.277-3.202c1.133,0,1.854,0.302,2.441,0.896l-0.949,0.947
			c-0.377-0.367-0.822-0.586-1.5-0.586c-1.326,0-1.887,0.671-1.887,1.962c0,1.249,0.469,1.963,1.895,1.963
			c0.805,0,1.191-0.27,1.578-0.629l0.904,0.889c-0.494,0.512-1.156,0.965-2.566,0.965C173.876,46.676,173.005,45.527,173.005,43.472
			z"/>
		<path fill="#FFFFFF" d="M181.456,40.328h1.393l2.508,6.255h-1.426l-0.402-1.022h-2.818l-0.402,1.022h-1.34L181.456,40.328z
			 M183.091,44.429l-0.973-2.475l-0.973,2.475H183.091z"/>
		<path fill="#FFFFFF" d="M186.095,40.369h2.883c1.652,0,2.357,0.462,2.357,1.603c0,0.721-0.26,1.174-0.832,1.374
			c0.73,0.177,0.998,0.646,0.998,1.527c0,1.351-0.871,1.71-2.541,1.71h-2.867v-6.214H186.095z M189.028,42.852
			c0.73,0,0.914-0.243,0.914-0.679c0-0.437-0.219-0.638-0.914-0.638h-1.584v1.316H189.028z M189.12,45.442
			c0.705,0,0.99-0.192,0.99-0.704s-0.277-0.695-0.99-0.695h-1.676v1.399H189.12z"/>
		<path fill="#FFFFFF" d="M194.327,40.328h1.393l2.506,6.255h-1.424l-0.402-1.022h-2.816l-0.404,1.022h-1.34L194.327,40.328z
			 M195.962,44.429l-0.971-2.475l-0.975,2.475H195.962z"/>
		<path fill="#FFFFFF" d="M198.964,40.369h2.232c2.447,0,3.461,0.637,3.461,3.103c0,2.424-1.047,3.111-3.496,3.111h-2.197V40.369
			L198.964,40.369z M201.237,45.384c1.693,0,2.037-0.511,2.037-1.912c0-1.399-0.285-1.869-2.063-1.869h-0.871v3.781H201.237z"/>
		<path fill="#FFFFFF" d="M205.22,43.472c0-2.33,1.309-3.202,3.287-3.202s3.295,0.872,3.295,3.202c0,2.34-1.316,3.212-3.295,3.212
			S205.22,45.812,205.22,43.472z M210.411,43.497c0-1.215-0.48-1.97-1.904-1.97c-1.426,0-1.904,0.755-1.904,1.97
			c0,1.216,0.479,1.979,1.904,1.979C209.931,45.477,210.411,44.713,210.411,43.497z"/>
		<path fill="#FFFFFF" d="M212.146,45.862l0.688-0.989c0.664,0.444,1.436,0.662,2.232,0.662c1.215,0,1.441-0.236,1.441-0.755
			c0-0.511-0.521-0.611-1.477-0.746c-1.658-0.234-2.521-0.537-2.521-1.887c0-1.383,0.838-1.878,2.59-1.878
			c1.266,0,2.037,0.293,2.516,0.611l-0.738,1.064c-0.395-0.259-1.123-0.477-1.795-0.477c-0.973,0-1.207,0.191-1.207,0.645
			c0,0.504,0.512,0.596,1.502,0.738c1.492,0.219,2.49,0.461,2.49,1.861c0,1.258-0.688,1.963-2.76,1.963
			C213.874,46.676,212.851,46.382,212.146,45.862z"/>
		<path fill="#FFFFFF" d="M220.599,40.369h1.795l1.684,4.244l1.686-4.244h1.787v6.214h-1.342v-4.15l-1.67,4.15h-1.039l-1.66-4.126
			v4.126h-1.24V40.369z"/>
		<path fill="#FFFFFF" d="M228.8,40.369h4.67v1.241h-3.295v1.207h3.211v1.199h-3.211v1.376h3.328v1.19H228.8V40.369z"/>
		<path fill="#FFFFFF" d="M236.212,41.61h-2.156v-1.24h5.686v1.24h-2.145v4.973h-1.385V41.61z"/>
		<path fill="#FFFFFF" d="M241.612,40.328h1.391l2.508,6.255h-1.426l-0.402-1.022h-2.816l-0.402,1.022h-1.342L241.612,40.328z
			 M243.247,44.429l-0.973-2.475l-0.973,2.475H243.247z M242.618,38.5h1.584l-1.602,1.534h-1.164L242.618,38.5z"/>
		<path fill="#FFFFFF" d="M246.241,40.369h1.375v5.023h3.051v1.19h-4.426V40.369L246.241,40.369z"/>
		<path fill="#FFFFFF" d="M251.505,40.369h1.367v6.214h-1.367V40.369z"/>
		<path fill="#FFFFFF" d="M253.87,43.472c0-2.23,1.215-3.202,3.279-3.202c1.133,0,1.854,0.302,2.439,0.896l-0.947,0.947
			c-0.377-0.367-0.822-0.586-1.502-0.586c-1.324,0-1.887,0.671-1.887,1.962c0,1.249,0.471,1.963,1.896,1.963
			c0.805,0,1.189-0.27,1.576-0.629l0.904,0.889c-0.494,0.512-1.156,0.965-2.564,0.965C254.743,46.676,253.87,45.527,253.87,43.472z"
			/>
		<path fill="#FFFFFF" d="M260.034,43.472c0-2.33,1.307-3.202,3.287-3.202c1.979,0,3.295,0.872,3.295,3.202
			c0,2.34-1.316,3.212-3.295,3.212C261.341,46.684,260.034,45.812,260.034,43.472z M265.224,43.497c0-1.215-0.479-1.97-1.902-1.97
			c-1.426,0-1.904,0.755-1.904,1.97c0,1.216,0.479,1.979,1.904,1.979S265.224,44.713,265.224,43.497z"/>
		<path fill="#FFFFFF" d="M266.96,45.862l0.688-0.989c0.662,0.444,1.434,0.662,2.23,0.662c1.217,0,1.443-0.236,1.443-0.755
			c0-0.511-0.52-0.611-1.477-0.746c-1.66-0.234-2.521-0.537-2.521-1.887c0-1.383,0.838-1.878,2.59-1.878
			c1.266,0,2.037,0.293,2.516,0.611l-0.738,1.064c-0.395-0.259-1.123-0.477-1.795-0.477c-0.973,0-1.207,0.191-1.207,0.645
			c0,0.504,0.512,0.596,1.502,0.738c1.492,0.219,2.49,0.461,2.49,1.861c0,1.258-0.688,1.963-2.758,1.963
			C268.687,46.676,267.665,46.382,266.96,45.862z"/>
	</g>
	<circle fill="#FFFFFF" cx="216.315" cy="32.52" r="1.153"/>
	<g>
		<path fill="#231F20" d="M103.165,28.265c0,0.775-0.07,1.314-0.213,1.625c-0.139,0.307-0.373,0.461-0.7,0.461
			c-0.334,0-0.567-0.148-0.704-0.449c-0.138-0.297-0.205-0.844-0.205-1.637v-6.817h-3.274v6.785c0,0.904,0.041,1.642,0.126,2.212
			c0.081,0.571,0.213,1.047,0.396,1.43c0.365,0.778,0.863,1.379,1.495,1.793c0.631,0.418,1.353,0.624,2.167,0.624
			c0.807,0,1.529-0.206,2.158-0.624c0.631-0.414,1.129-1.015,1.495-1.793c0.187-0.389,0.322-0.869,0.408-1.446
			c0.085-0.576,0.127-1.31,0.127-2.195v-6.785h-3.274L103.165,28.265L103.165,28.265z"/>
		<polygon fill="#231F20" points="116.581,29.898 116.581,21.447 113.3,21.447 113.3,33.96 119.564,33.96 119.769,33.173 
			119.769,29.898 		"/>
		<path fill="#231F20" d="M96.603,29.648c0.124-0.596,0.188-1.241,0.188-1.935c0-0.925-0.116-1.783-0.352-2.573
			c-0.233-0.793-0.576-1.493-1.022-2.104c-0.452-0.61-0.979-1.073-1.572-1.395c-0.596-0.318-1.239-0.479-1.927-0.479
			c-0.693,0-1.338,0.157-1.932,0.47c-0.59,0.314-1.113,0.775-1.563,1.387c-0.445,0.598-0.787,1.294-1.022,2.093
			c-0.235,0.798-0.352,1.663-0.352,2.597c0,0.931,0.116,1.791,0.348,2.581c0.231,0.795,0.575,1.49,1.029,2.096
			c0.455,0.615,0.979,1.082,1.569,1.397c0.594,0.318,1.231,0.476,1.922,0.476c0.379,0,0.752-0.059,1.122-0.172
			c0.367-0.113,0.738-0.284,1.112-0.511l0.579,1.231l2.671-1.37l-1.374-2.102C96.282,30.809,96.474,30.246,96.603,29.648z
			 M93.438,28.019c-0.006,0.104-0.019,0.209-0.036,0.311l-2.061,0.554l0.742,1.156h-0.168c-0.475,0-0.848-0.21-1.124-0.628
			c-0.277-0.42-0.414-0.986-0.414-1.697c0-0.712,0.14-1.289,0.423-1.727c0.283-0.44,0.653-0.659,1.115-0.659
			c0.46,0,0.831,0.216,1.11,0.65c0.282,0.433,0.423,1.013,0.423,1.735C93.449,27.815,93.445,27.918,93.438,28.019z"/>
		<path fill="#231F20" d="M80.246,21.447L77.21,33.145l0.094,0.814h3.21l0.282-1.572h2.471l0.293,1.572h3.522l-3.186-12.512H80.246z
			 M81.344,29.411l0.281-1.418c0.136-0.717,0.229-1.271,0.28-1.659c0.05-0.386,0.081-0.749,0.092-1.092h0.057
			c0.013,0.342,0.043,0.706,0.095,1.092c0.047,0.389,0.141,0.942,0.278,1.659l0.277,1.418H81.344z"/>
		<path fill="#231F20" d="M72.486,21.447l-0.679,3.043c-0.167,0.747-0.298,1.418-0.398,2.017c-0.1,0.597-0.174,1.162-0.225,1.691
			h-0.056c-0.062-0.843-0.23-1.917-0.504-3.221c-0.042-0.192-0.074-0.338-0.095-0.435l-0.647-3.095h-3.38L64.946,33.96h3.214
			l0.396-4.956c0.026-0.383,0.048-0.761,0.073-1.139c0.023-0.376,0.044-0.758,0.066-1.143c0.035,0.36,0.089,0.737,0.154,1.142
			c0.066,0.399,0.149,0.827,0.255,1.285l1.046,4.811H72.1l1.047-4.811c0.1-0.458,0.185-0.886,0.253-1.285
			c0.067-0.404,0.119-0.781,0.156-1.142c0.018,0.38,0.038,0.762,0.064,1.142c0.023,0.379,0.049,0.758,0.074,1.14l0.396,4.956h2.908
			l0.211-0.813l-1.351-11.698L72.486,21.447L72.486,21.447z"/>
		<rect x="108.201" y="21.447" fill="#231F20" width="3.33" height="12.513"/>
		<path fill="#231F20" d="M129.354,32.8l-2.893-11.353h-3.649l-3.044,11.726v0.787h3.312l0.281-1.572h2.472l0.292,1.572h3.524
			l-0.26-1.021c-0.021-0.017-0.042-0.03-0.063-0.048L129.354,32.8z M123.91,29.411l0.28-1.418c0.135-0.717,0.229-1.271,0.279-1.659
			c0.049-0.386,0.081-0.749,0.095-1.092h0.055c0.013,0.342,0.043,0.706,0.094,1.092c0.048,0.389,0.143,0.942,0.28,1.659l0.279,1.418
			H123.91z"/>
		<path fill="#231F20" d="M134.823,26.227c-0.078-0.023-0.19-0.059-0.335-0.105c-0.908-0.266-1.363-0.578-1.363-0.932
			c0-0.187,0.062-0.335,0.187-0.439c0.125-0.105,0.301-0.158,0.528-0.158c0.3,0,0.607,0.086,0.925,0.252
			c0.319,0.169,0.638,0.414,0.95,0.731l0.996-3.272c-0.514-0.383-1.025-0.668-1.532-0.855c-0.506-0.189-1.021-0.283-1.544-0.283
			c-1.138,0-2.058,0.423-2.759,1.266c-0.7,0.845-1.051,1.938-1.051,3.282c0,0.867,0.179,1.59,0.541,2.17
			c0.361,0.581,0.882,0.986,1.563,1.214c0.116,0.035,0.277,0.082,0.486,0.146c0.644,0.181,0.965,0.447,0.965,0.794
			c0,0.201-0.063,0.359-0.193,0.477c-0.128,0.116-0.305,0.173-0.529,0.173c-0.319,0-0.663-0.104-1.031-0.312
			c-0.366-0.207-0.784-0.537-1.254-0.986l-1.018,3.413l0.035,0.14c0.576,0.441,1.152,0.776,1.732,1.002
			c0.597,0.233,1.192,0.35,1.791,0.35c1.166,0,2.114-0.437,2.843-1.315c0.729-0.877,1.094-2.01,1.094-3.393
			c0-0.848-0.183-1.572-0.543-2.171C135.944,26.815,135.451,26.418,134.823,26.227z"/>
		<path fill="#231F20" d="M135.777,40.065c-0.078-0.021-0.19-0.055-0.335-0.098c-0.909-0.249-1.363-0.545-1.363-0.877
			c0-0.177,0.061-0.317,0.187-0.417c0.125-0.099,0.3-0.149,0.528-0.149c0.3,0,0.608,0.081,0.924,0.238
			c0.319,0.159,0.637,0.391,0.95,0.689l0.996-3.085c-0.514-0.361-1.026-0.63-1.532-0.806c-0.506-0.18-1.02-0.267-1.544-0.267
			c-1.138,0-2.058,0.398-2.76,1.192c-0.7,0.798-1.051,1.826-1.051,3.096c0,0.817,0.181,1.501,0.542,2.047
			c0.361,0.547,0.881,0.928,1.562,1.145c0.116,0.033,0.278,0.076,0.486,0.138c0.644,0.168,0.964,0.421,0.964,0.746
			c0,0.19-0.063,0.339-0.192,0.45c-0.128,0.108-0.305,0.163-0.528,0.163c-0.319,0-0.663-0.1-1.031-0.293
			c-0.368-0.197-0.785-0.508-1.254-0.931l-1.019,3.218l0.036,0.132c0.576,0.417,1.152,0.732,1.731,0.945
			c0.597,0.219,1.192,0.331,1.791,0.331c1.167,0,2.114-0.413,2.844-1.241c0.728-0.828,1.093-1.895,1.093-3.197
			c0-0.801-0.182-1.483-0.543-2.047C136.898,40.623,136.405,40.247,135.777,40.065z"/>
		<polygon fill="#231F20" points="100.943,35.579 100.943,47.613 107.412,47.613 107.412,44.03 104.226,44.03 104.226,35.579 		"/>
		<polygon fill="#231F20" points="83.345,38.973 83.345,35.579 77.25,35.579 77.25,47.613 83.418,47.613 83.418,44.699 
			80.462,44.699 80.462,43.383 83.077,43.383 83.077,40.177 80.462,40.177 80.462,38.973 		"/>
		<polygon fill="#231F20" points="89.197,47.613 89.197,39.673 91.02,39.673 91.02,35.579 84.099,35.579 84.099,39.673 
			85.923,39.673 85.923,47.613 		"/>
		<path fill="#231F20" d="M130.31,46.932l-2.892-11.353h-3.649l-3.125,12.034h3.478l0.195-1.095h2.472l0.204,1.095h3.49
			l-0.138-0.542c-0.021-0.015-0.042-0.03-0.063-0.047L130.31,46.932z M124.864,43.544l0.281-1.418
			c0.136-0.717,0.229-1.269,0.28-1.659c0.05-0.386,0.081-0.75,0.094-1.093h0.056c0.013,0.341,0.044,0.707,0.093,1.093
			c0.049,0.391,0.144,0.942,0.281,1.659l0.276,1.418H124.864z"/>
		<path fill="#231F20" d="M74.903,35.579h-3.372l-0.681,3.044c-0.166,0.747-0.297,1.417-0.396,2.014
			c-0.101,0.598-0.176,1.165-0.227,1.693h-0.056c-0.062-0.843-0.228-1.917-0.504-3.22c-0.042-0.193-0.072-0.339-0.093-0.437
			l-0.649-3.095h-3.38l-1.497,12.034h3.193l0.359-4.479c0.024-0.381,0.048-0.762,0.071-1.138c0.024-0.377,0.045-0.757,0.067-1.143
			c0.035,0.358,0.089,0.737,0.153,1.141c0.067,0.398,0.152,0.829,0.256,1.286l0.942,4.332h2.155l0.942-4.332
			c0.101-0.457,0.186-0.888,0.253-1.286c0.067-0.403,0.122-0.782,0.157-1.141c0.018,0.378,0.039,0.76,0.064,1.141
			c0.022,0.378,0.049,0.759,0.074,1.14l0.357,4.479h3.197L74.903,35.579z"/>
		<rect x="108.479" y="35.579" fill="#231F20" width="3.33" height="12.034"/>
		<path fill="#231F20" d="M97.253,35.579h-3.649l-3.124,12.034h3.479l0.194-1.095h2.472l0.204,1.095h3.491L97.253,35.579z
			 M94.7,43.544l0.281-1.418c0.136-0.717,0.229-1.269,0.28-1.659c0.048-0.386,0.081-0.75,0.093-1.093h0.055
			c0.014,0.341,0.044,0.707,0.095,1.093c0.049,0.391,0.142,0.942,0.279,1.659l0.279,1.418H94.7z"/>
		<path fill="#231F20" d="M120.352,42.669c-0.387,0.383-0.741,0.657-1.068,0.833c-0.325,0.174-0.646,0.261-0.962,0.261
			c-0.522,0-0.941-0.206-1.251-0.621c-0.313-0.413-0.467-0.965-0.467-1.658c0-0.71,0.163-1.279,0.488-1.706
			c0.325-0.426,0.757-0.642,1.292-0.642c0.344,0,0.674,0.092,0.984,0.277c0.313,0.18,0.615,0.457,0.916,0.83v-4.368
			c-0.34-0.2-0.69-0.35-1.049-0.448c-0.36-0.1-0.724-0.147-1.094-0.147c-0.691,0-1.336,0.147-1.933,0.447
			c-0.596,0.296-1.12,0.737-1.573,1.317c-0.445,0.574-0.787,1.237-1.021,1.989c-0.237,0.751-0.354,1.568-0.354,2.45
			c0,1.193,0.205,2.246,0.621,3.165c0.13,0.29,0.281,0.562,0.451,0.82c0.096,0.15,0.194,0.297,0.303,0.437
			c0.31,0.395,0.651,0.725,1.027,0.988c0.005,0.004,0.011,0.008,0.016,0.015h0.002c0.17,0.117,0.345,0.223,0.528,0.313
			c0.597,0.302,1.24,0.449,1.933,0.449c0.37,0,0.733-0.049,1.094-0.147c0.358-0.101,0.709-0.249,1.048-0.451v-1.55L120.352,42.669z"
			/>
	</g>
	<path fill="#FFFFFF" d="M98.9,32.114c0.364,0.777,0.863,1.379,1.494,1.793c0.632,0.419,1.354,0.624,2.168,0.624
		c0.807,0,1.529-0.205,2.159-0.624c0.63-0.414,1.128-1.016,1.493-1.793c0.187-0.389,0.323-0.869,0.408-1.445
		c0.086-0.577,0.127-1.31,0.127-2.196v-6.785h-3.274v6.816c0,0.776-0.07,1.316-0.213,1.626c-0.14,0.307-0.373,0.461-0.7,0.461
		c-0.334,0-0.567-0.149-0.704-0.45c-0.138-0.297-0.206-0.843-0.206-1.637v-6.816h-3.273v6.785c0,0.904,0.041,1.643,0.125,2.212
		C98.585,31.255,98.718,31.73,98.9,32.114z"/>
	<path fill="#FFFFFF" d="M84.207,21.688h-3.649l-3.037,11.697l-1.352-11.697h-3.372l-0.68,3.042
		c-0.167,0.747-0.297,1.418-0.397,2.017c-0.1,0.597-0.175,1.163-0.226,1.691h-0.055c-0.062-0.843-0.229-1.917-0.504-3.221
		c-0.042-0.192-0.074-0.338-0.094-0.435l-0.648-3.095h-3.381l-1.555,12.512h3.213l0.396-4.956c0.027-0.383,0.05-0.761,0.073-1.138
		s0.044-0.759,0.066-1.144c0.035,0.358,0.09,0.736,0.154,1.141c0.066,0.399,0.149,0.828,0.255,1.285l1.047,4.811h1.948l1.047-4.811
		c0.1-0.458,0.185-0.886,0.253-1.285c0.067-0.404,0.12-0.782,0.156-1.141c0.018,0.379,0.039,0.761,0.063,1.141
		c0.025,0.379,0.051,0.758,0.075,1.14l0.398,4.956h2.467h0.439h0.305h0.485h2.726l0.281-1.572h2.472l0.292,1.572h3.523
		L84.207,21.688z M81.653,29.651l0.282-1.419c0.136-0.717,0.229-1.271,0.279-1.659c0.05-0.385,0.081-0.749,0.093-1.091h0.056
		c0.013,0.342,0.044,0.706,0.095,1.091c0.048,0.389,0.143,0.942,0.279,1.659l0.277,1.419H81.653z"/>
	<rect x="108.512" y="21.688" fill="#FFFFFF" width="3.33" height="12.512"/>
	<path fill="#FFFFFF" d="M123.673,32.627h2.471l0.293,1.572h3.523l-0.262-1.021c-0.02-0.015-0.041-0.031-0.062-0.047l0.027-0.092
		l-2.892-11.353h-3.649l-3.045,11.726v0.036h-0.009l0.009-0.036v-3.275h-3.188v-8.45h-3.28v12.512h5.884h0.38h0.204h0.758h2.554
		L123.673,32.627z M124.501,28.232c0.135-0.717,0.229-1.271,0.278-1.659c0.05-0.385,0.082-0.749,0.096-1.091h0.055
		c0.012,0.342,0.042,0.706,0.093,1.091c0.048,0.389,0.144,0.942,0.281,1.659l0.277,1.419h-1.361L124.501,28.232z"/>
	<path fill="#FFFFFF" d="M131.432,34.182c0.596,0.233,1.192,0.35,1.79,0.35c1.167,0,2.115-0.437,2.844-1.315
		c0.728-0.877,1.093-2.01,1.093-3.393c0-0.849-0.182-1.572-0.543-2.171c-0.361-0.598-0.854-0.994-1.481-1.186
		c-0.078-0.024-0.191-0.06-0.336-0.105c-0.909-0.266-1.363-0.578-1.363-0.931c0-0.187,0.062-0.335,0.187-0.44
		c0.126-0.104,0.301-0.157,0.529-0.157c0.299,0,0.607,0.085,0.924,0.251c0.319,0.169,0.637,0.415,0.95,0.731l0.997-3.272
		c-0.515-0.382-1.027-0.668-1.533-0.855c-0.507-0.19-1.02-0.281-1.544-0.281c-1.138,0-2.059,0.422-2.759,1.265
		c-0.701,0.844-1.052,1.937-1.052,3.282c0,0.866,0.181,1.59,0.542,2.17c0.361,0.581,0.882,0.985,1.563,1.213
		c0.116,0.036,0.278,0.083,0.486,0.146c0.644,0.181,0.965,0.446,0.965,0.794c0,0.201-0.063,0.358-0.193,0.476
		c-0.128,0.116-0.305,0.175-0.528,0.175c-0.319,0-0.663-0.106-1.031-0.313c-0.367-0.207-0.785-0.537-1.254-0.985l-1.019,3.412
		l0.036,0.139C130.275,33.621,130.852,33.955,131.432,34.182z"/>
	<path fill="#FFFFFF" d="M137.569,41.426c-0.36-0.563-0.854-0.939-1.48-1.119c-0.079-0.021-0.191-0.055-0.336-0.1
		c-0.909-0.249-1.363-0.543-1.363-0.877c0-0.177,0.062-0.317,0.187-0.416c0.126-0.101,0.301-0.15,0.529-0.15
		c0.3,0,0.607,0.081,0.925,0.238c0.318,0.159,0.637,0.392,0.949,0.689l0.996-3.086c-0.514-0.36-1.025-0.628-1.531-0.806
		c-0.507-0.178-1.021-0.266-1.545-0.266c-1.137,0-2.058,0.398-2.758,1.193c-0.701,0.796-1.052,1.824-1.052,3.096
		c0,0.816,0.18,1.498,0.542,2.045c0.361,0.549,0.881,0.931,1.562,1.145c0.116,0.033,0.277,0.076,0.486,0.138
		c0.645,0.17,0.966,0.422,0.966,0.746c0,0.19-0.064,0.339-0.193,0.45c-0.128,0.109-0.305,0.162-0.529,0.162
		c-0.319,0-0.663-0.099-1.031-0.292c-0.367-0.195-0.784-0.508-1.254-0.929l-1.017,3.217l0.034,0.132
		c0.577,0.417,1.152,0.732,1.732,0.945c0.597,0.221,1.192,0.33,1.791,0.33c1.166,0,2.114-0.413,2.843-1.241
		c0.729-0.826,1.093-1.893,1.093-3.197C138.112,42.672,137.931,41.989,137.569,41.426z"/>
	<polygon fill="#FFFFFF" points="104.535,35.819 101.254,35.819 101.254,47.854 107.724,47.854 107.724,44.27 104.535,44.27 	"/>
	<polygon fill="#FFFFFF" points="80.772,43.622 83.387,43.622 83.387,40.416 80.772,40.416 80.772,39.213 83.655,39.213 
		83.655,35.819 77.56,35.819 77.56,47.854 83.728,47.854 83.728,44.938 80.772,44.938 	"/>
	<polygon fill="#FFFFFF" points="91.331,35.819 84.409,35.819 84.409,39.912 86.231,39.912 86.231,47.854 89.508,47.854 
		89.508,39.912 91.331,39.912 	"/>
	<path fill="#FFFFFF" d="M130.592,47.264l0.028-0.093l-2.892-11.354h-3.649l-3.125,12.034h3.478l0.195-1.094h2.472l0.203,1.094
		h3.491l-0.138-0.541C130.634,47.295,130.612,47.28,130.592,47.264z M125.174,43.783l0.282-1.418
		c0.136-0.717,0.229-1.271,0.279-1.658c0.05-0.387,0.08-0.751,0.093-1.093h0.056c0.014,0.341,0.044,0.706,0.093,1.093
		c0.05,0.388,0.144,0.941,0.282,1.658l0.277,1.418H125.174z"/>
	<path fill="#FFFFFF" d="M71.841,35.819l-0.68,3.043c-0.166,0.747-0.297,1.418-0.396,2.016c-0.101,0.598-0.176,1.164-0.226,1.692
		h-0.056c-0.062-0.844-0.229-1.917-0.504-3.221c-0.042-0.193-0.073-0.338-0.093-0.436l-0.648-3.095h-3.38L64.36,47.853h3.192
		l0.36-4.479c0.024-0.381,0.048-0.76,0.071-1.136c0.023-0.377,0.045-0.759,0.065-1.145c0.036,0.359,0.09,0.738,0.154,1.141
		c0.066,0.398,0.151,0.828,0.255,1.287l0.942,4.332h2.155l0.942-4.332c0.101-0.459,0.186-0.889,0.254-1.287
		c0.066-0.402,0.121-0.781,0.156-1.141c0.018,0.38,0.039,0.762,0.064,1.141c0.022,0.38,0.048,0.759,0.073,1.14l0.358,4.479h3.197
		l-1.391-12.033H71.841z"/>
	<rect x="108.789" y="35.819" fill="#FFFFFF" width="3.329" height="12.033"/>
	<path fill="#FFFFFF" d="M93.914,35.819l-3.125,12.033h3.479l0.194-1.095h2.472l0.204,1.095h3.491l-3.065-12.033H93.914z
		 M95.01,43.783l0.282-1.418c0.134-0.717,0.229-1.271,0.279-1.658c0.049-0.387,0.082-0.751,0.095-1.093h0.054
		c0.015,0.341,0.044,0.706,0.095,1.093c0.049,0.388,0.143,0.941,0.28,1.658l0.278,1.418H95.01z"/>
	<path fill="#FFFFFF" d="M118.632,44.002c-0.522,0-0.941-0.205-1.252-0.621c-0.312-0.413-0.467-0.965-0.467-1.657
		c0-0.71,0.163-1.28,0.488-1.706c0.325-0.427,0.757-0.641,1.291-0.641c0.345,0,0.675,0.091,0.985,0.275
		c0.313,0.181,0.615,0.459,0.915,0.832v-4.368c-0.339-0.2-0.69-0.35-1.049-0.448c-0.36-0.1-0.724-0.148-1.094-0.148
		c-0.691,0-1.335,0.148-1.933,0.447c-0.596,0.298-1.12,0.739-1.573,1.318c-0.446,0.574-0.787,1.238-1.021,1.988
		c-0.237,0.754-0.353,1.571-0.353,2.451c0,1.193,0.205,2.247,0.62,3.164c0.13,0.29,0.281,0.563,0.451,0.821
		c0.096,0.15,0.195,0.298,0.303,0.436c0.309,0.396,0.652,0.725,1.027,0.988c0.006,0.004,0.011,0.011,0.016,0.015h0.003
		c0.17,0.118,0.346,0.225,0.528,0.315c0.597,0.3,1.241,0.448,1.933,0.448c0.369,0,0.733-0.05,1.093-0.148
		c0.359-0.101,0.71-0.248,1.049-0.448v-1.552l0.069-2.854c-0.387,0.382-0.742,0.656-1.068,0.832
		C119.268,43.915,118.946,44.002,118.632,44.002z"/>
	<g>
		<path fill="#FFFFFF" d="M97.581,33.345l-1.245-1.769c0.256-0.528,0.447-1.091,0.575-1.688c0.126-0.596,0.189-1.24,0.189-1.935
			c0-0.925-0.117-1.782-0.353-2.573c-0.233-0.793-0.576-1.493-1.022-2.104c-0.453-0.61-0.978-1.073-1.572-1.395
			c-0.596-0.317-1.239-0.477-1.927-0.477c-0.694,0-1.338,0.157-1.932,0.469c-0.591,0.314-1.114,0.775-1.563,1.386
			c-0.446,0.597-0.788,1.295-1.022,2.094c-0.235,0.797-0.352,1.663-0.352,2.597c0,0.931,0.116,1.792,0.348,2.582
			c0.231,0.793,0.576,1.489,1.029,2.094c0.454,0.616,0.979,1.083,1.569,1.397c0.593,0.318,1.231,0.477,1.922,0.477
			c0.379,0,0.753-0.059,1.121-0.173c0.368-0.113,0.739-0.282,1.113-0.511l0.415,0.916L97.581,33.345z M93.75,28.259
			c-0.007,0.104-0.02,0.209-0.037,0.311l-2.061,0.554l0.741,1.156h-0.167c-0.475,0-0.849-0.21-1.124-0.628
			c-0.277-0.42-0.415-0.986-0.415-1.698s0.141-1.289,0.423-1.727c0.283-0.441,0.654-0.659,1.116-0.659c0.46,0,0.83,0.216,1.11,0.65
			c0.281,0.433,0.422,1.012,0.422,1.735C93.758,28.056,93.756,28.158,93.75,28.259z"/>
		<polygon fill="#231F20" points="97.681,33.613 94.964,35.086 98.683,35.089 		"/>
	</g>
	<polygon fill="#FFFFFF" points="97.858,33.771 95.055,35.326 98.901,35.326 	"/>
</g>
</svg>
