<?xml version="1.0" encoding="utf-8"?>
<!-- Generator: Adobe Illustrator 15.1.0, SVG Export Plug-In . SVG Version: 6.00 Build 0)  -->
<!DOCTYPE svg PUBLIC "-//W3C//DTD SVG 1.1//EN" "http://www.w3.org/Graphics/SVG/1.1/DTD/svg11.dtd">
<svg version="1.1" id="Capa_1" xmlns="http://www.w3.org/2000/svg" xmlns:xlink="http://www.w3.org/1999/xlink" x="0px" y="0px"
	 width="340.158px" height="70.867px" viewBox="0 0 340.158 70.867" enable-background="new 0 0 340.158 70.867"
	 xml:space="preserve">
<g>
	<g>
		
			<radialGradient id="SVGID_1_" cx="70.4482" cy="34.3232" r="68.5971" gradientTransform="matrix(1 0 0 -1 0 71.8672)" gradientUnits="userSpaceOnUse">
			<stop  offset="0" style="stop-color:#50C8F0"/>
			<stop  offset="0.5" style="stop-color:#1F8BC7"/>
			<stop  offset="1" style="stop-color:#1A325E"/>
		</radialGradient>
		<path fill="url(#SVGID_1_)" d="M130.792,69.436H10.105c-4.075,0-7.39-3.314-7.39-7.391V8.821c0-4.075,3.315-7.39,7.39-7.39
			h120.687c4.075,0,7.39,3.314,7.39,7.39v53.224C138.182,66.121,134.867,69.436,130.792,69.436z M10.105,3.647
			c-2.853,0-5.174,2.322-5.174,5.174v53.224c0,2.854,2.321,5.175,5.174,5.175h120.687c2.853,0,5.174-2.321,5.174-5.175V8.821
			c0-2.853-2.322-5.174-5.174-5.174H10.105z"/>
	</g>
	
		<radialGradient id="SVGID_2_" cx="70.4482" cy="36.1777" r="48.2576" gradientTransform="matrix(1 0 0 -1 0 71.8672)" gradientUnits="userSpaceOnUse">
		<stop  offset="0" style="stop-color:#1F8BC7"/>
		<stop  offset="1" style="stop-color:#1A325E"/>
	</radialGradient>
	<path fill="url(#SVGID_2_)" d="M132.465,10.343c0-1.735-1.406-3.141-3.141-3.141H11.573c-1.735,0-3.141,1.406-3.141,3.141v50.69
		c0,1.734,1.406,3.143,3.141,3.143h117.751c1.735,0,3.141-1.406,3.141-3.143V10.343L132.465,10.343z"/>
	<g>
		<path fill="#FFFFFF" d="M11.904,10.05c0.525-0.395,1.177-0.632,1.885-0.632c1.735,0,3.141,1.406,3.141,3.141
			c0,0.691-0.227,1.328-0.605,1.848L11.904,10.05z"/>
		<path fill="#FFFFFF" d="M15.756,15.006c-0.539,0.433-1.222,0.694-1.967,0.694c-1.735,0-3.142-1.406-3.142-3.141
			c0-0.729,0.251-1.397,0.667-1.93L15.756,15.006z"/>
	</g>
	<g>
		<path fill="#FFFFFF" d="M11.28,60.031c-0.396-0.524-0.632-1.176-0.632-1.885c0-1.732,1.406-3.141,3.141-3.141
			c0.691,0,1.328,0.227,1.847,0.605L11.28,60.031z"/>
		<path fill="#FFFFFF" d="M16.236,56.182c0.433,0.538,0.693,1.221,0.693,1.965c0,1.735-1.406,3.143-3.141,3.143
			c-0.729,0-1.397-0.25-1.93-0.667L16.236,56.182z"/>
	</g>
	<g>
		<path fill="#FFFFFF" d="M124.6,56.264c-0.396,0.525-0.633,1.176-0.633,1.883c0,1.735,1.407,3.143,3.141,3.143
			c0.691,0,1.329-0.227,1.848-0.604L124.6,56.264z"/>
		<path fill="#FFFFFF" d="M129.555,60.116c0.434-0.539,0.694-1.224,0.694-1.97c0-1.732-1.406-3.14-3.141-3.14
			c-0.728,0-1.397,0.25-1.93,0.666L129.555,60.116z"/>
	</g>
	<g>
		<path fill="#FFFFFF" d="M124.6,14.443c-0.396-0.525-0.633-1.176-0.633-1.884c0-1.735,1.407-3.142,3.141-3.142
			c0.691,0,1.329,0.226,1.848,0.605L124.6,14.443z"/>
		<path fill="#FFFFFF" d="M129.555,10.591c0.434,0.539,0.694,1.222,0.694,1.968c0,1.734-1.406,3.14-3.141,3.14
			c-0.728,0-1.397-0.25-1.93-0.667L129.555,10.591z"/>
	</g>
	<g enable-background="new    ">
		<path fill="#FFFFFF" d="M147.884,27.105h1.988l3.582,8.936h-2.036l-0.575-1.461h-4.024l-0.575,1.461h-1.917L147.884,27.105z
			 M150.22,32.963l-1.39-3.534l-1.389,3.534H150.22z"/>
		<path fill="#FFFFFF" d="M153.67,31.597c0-3.186,1.737-4.575,4.684-4.575c1.617,0,2.647,0.432,3.485,1.281l-1.354,1.354
			c-0.539-0.526-1.174-0.838-2.144-0.838c-1.893,0-2.695,0.958-2.695,2.803c0,1.785,0.67,2.803,2.707,2.803
			c1.15,0,1.701-0.383,2.252-0.898l1.293,1.27c-0.707,0.731-1.653,1.378-3.666,1.378C154.916,36.173,153.67,34.532,153.67,31.597z"
			/>
		<path fill="#FFFFFF" d="M162.474,31.597c0-3.186,1.737-4.575,4.684-4.575c1.617,0,2.647,0.432,3.486,1.281l-1.354,1.354
			c-0.539-0.526-1.174-0.838-2.144-0.838c-1.893,0-2.695,0.958-2.695,2.803c0,1.785,0.67,2.803,2.707,2.803
			c1.15,0,1.701-0.383,2.252-0.898l1.293,1.27c-0.707,0.731-1.653,1.378-3.666,1.378C163.72,36.173,162.474,34.532,162.474,31.597z"
			/>
		<path fill="#FFFFFF" d="M172.045,27.165h6.672v1.772h-4.708v1.726h4.588v1.713h-4.588v1.964h4.756v1.701h-6.72V27.165z"/>
		<path fill="#FFFFFF" d="M179.509,35.011l0.981-1.413c0.946,0.635,2.048,0.946,3.187,0.946c1.736,0,2.061-0.336,2.061-1.078
			c0-0.73-0.743-0.874-2.109-1.066c-2.371-0.335-3.604-0.767-3.604-2.695c0-1.976,1.198-2.683,3.701-2.683
			c1.809,0,2.911,0.419,3.593,0.874l-1.054,1.521c-0.563-0.371-1.604-0.683-2.563-0.683c-1.389,0-1.725,0.275-1.725,0.922
			c0,0.719,0.73,0.851,2.145,1.055c2.132,0.312,3.557,0.658,3.557,2.659c0,1.797-0.982,2.803-3.94,2.803
			C181.976,36.173,180.515,35.754,179.509,35.011z"/>
		<path fill="#FFFFFF" d="M188.349,31.597c0-3.329,1.869-4.575,4.695-4.575c2.827,0,4.707,1.246,4.707,4.575
			c0,3.343-1.88,4.588-4.707,4.588C190.218,36.185,188.349,34.939,188.349,31.597z M195.763,31.633c0-1.736-0.682-2.814-2.719-2.814
			c-2.036,0-2.719,1.078-2.719,2.814c0,1.737,0.683,2.827,2.719,2.827C195.081,34.46,195.763,33.37,195.763,31.633z"/>
		<path fill="#FFFFFF" d="M202.95,33.095h-1.988v2.946h-1.916v-8.876h4.287c2.791,0,3.463,1.198,3.463,2.898
			c0,1.223-0.396,2.349-1.869,2.815l1.761,3.162h-2.097L202.95,33.095z M203.274,31.405c1.065,0,1.545-0.264,1.545-1.27
			c0-1.03-0.455-1.294-1.569-1.294h-2.288v2.563H203.274z"/>
		<path fill="#FFFFFF" d="M208.425,27.165h1.953v8.876h-1.953V27.165z"/>
		<path fill="#FFFFFF" d="M211.803,31.597c0-3.329,1.868-4.575,4.695-4.575s4.708,1.246,4.708,4.575
			c0,3.343-1.881,4.588-4.708,4.588S211.803,34.939,211.803,31.597z M219.218,31.633c0-1.736-0.684-2.814-2.72-2.814
			s-2.719,1.078-2.719,2.814c0,1.737,0.683,2.827,2.719,2.827S219.218,33.37,219.218,31.633z"/>
		<path fill="#FFFFFF" d="M221.698,35.011l0.981-1.413c0.946,0.635,2.048,0.946,3.187,0.946c1.736,0,2.061-0.336,2.061-1.078
			c0-0.73-0.743-0.874-2.109-1.066c-2.371-0.335-3.604-0.767-3.604-2.695c0-1.976,1.198-2.683,3.701-2.683
			c1.809,0,2.911,0.419,3.593,0.874l-1.054,1.521c-0.563-0.371-1.604-0.683-2.563-0.683c-1.389,0-1.725,0.275-1.725,0.922
			c0,0.719,0.73,0.851,2.145,1.055c2.132,0.312,3.557,0.658,3.557,2.659c0,1.797-0.982,2.803-3.94,2.803
			C224.165,36.173,222.704,35.754,221.698,35.011z"/>
		<path fill="#FFFFFF" d="M238.923,27.165h6.672v1.772h-4.707v1.726h4.588v1.713h-4.588v1.964h4.755v1.701h-6.72V27.165z"/>
		<path fill="#FFFFFF" d="M246.386,35.011l0.982-1.413c0.945,0.635,2.048,0.946,3.186,0.946c1.737,0,2.061-0.336,2.061-1.078
			c0-0.73-0.742-0.874-2.108-1.066c-2.372-0.335-3.604-0.767-3.604-2.695c0-1.976,1.197-2.683,3.701-2.683
			c1.809,0,2.91,0.419,3.593,0.874l-1.054,1.521c-0.563-0.371-1.605-0.683-2.563-0.683c-1.39,0-1.726,0.275-1.726,0.922
			c0,0.719,0.731,0.851,2.145,1.055c2.133,0.312,3.558,0.658,3.558,2.659c0,1.797-0.982,2.803-3.94,2.803
			C248.853,36.173,247.392,35.754,246.386,35.011z"/>
		<path fill="#FFFFFF" d="M257.861,28.938h-3.079v-1.772h8.122v1.772h-3.066v7.104h-1.977V28.938z"/>
		<path fill="#FFFFFF" d="M267.864,33.095h-1.989v2.946h-1.917v-8.876h4.289c2.791,0,3.461,1.198,3.461,2.898
			c0,1.223-0.395,2.349-1.868,2.815l1.761,3.162h-2.096L267.864,33.095z M268.187,31.405c1.066,0,1.545-0.264,1.545-1.27
			c0-1.03-0.455-1.294-1.568-1.294h-2.288v2.563H268.187z"/>
		<path fill="#FFFFFF" d="M273.026,32.651v-5.486h1.965v5.234c0,1.317,0.323,2.072,2.12,2.072c1.784,0,2.132-0.706,2.132-2.072
			v-5.234h1.904v5.486c0,1.701-0.322,3.558-4.061,3.558C273.338,36.209,273.026,34.353,273.026,32.651z"/>
		<path fill="#FFFFFF" d="M282.322,31.597c0-3.186,1.737-4.575,4.684-4.575c1.616,0,2.647,0.432,3.485,1.281l-1.354,1.354
			c-0.539-0.526-1.174-0.838-2.145-0.838c-1.893,0-2.694,0.958-2.694,2.803c0,1.785,0.671,2.803,2.707,2.803
			c1.149,0,1.7-0.383,2.252-0.898l1.294,1.27c-0.707,0.731-1.653,1.378-3.666,1.378C283.567,36.173,282.322,34.532,282.322,31.597z"
			/>
		<path fill="#FFFFFF" d="M294.134,28.938h-3.079v-1.772h8.122v1.772h-3.066v7.104h-1.977V28.938z"/>
		<path fill="#FFFFFF" d="M300.171,32.651v-5.486h1.965v5.234c0,1.317,0.322,2.072,2.119,2.072c1.785,0,2.133-0.706,2.133-2.072
			v-5.234h1.904v5.486c0,1.701-0.324,3.558-4.061,3.558C300.481,36.209,300.171,34.353,300.171,32.651z"/>
		<path fill="#FFFFFF" d="M313.909,33.095h-1.988v2.946h-1.916v-8.876h4.289c2.79,0,3.461,1.198,3.461,2.898
			c0,1.223-0.395,2.349-1.869,2.815l1.762,3.162h-2.097L313.909,33.095z M314.233,31.405c1.066,0,1.545-0.264,1.545-1.27
			c0-1.03-0.455-1.294-1.568-1.294h-2.289v2.563H314.233z"/>
		<path fill="#FFFFFF" d="M321.853,27.105h1.988l3.581,8.936h-2.036l-0.575-1.461h-4.024l-0.575,1.461h-1.917L321.853,27.105z
			 M324.188,32.963l-1.391-3.534l-1.389,3.534H324.188z"/>
		<path fill="#FFFFFF" d="M327.591,35.011l0.981-1.413c0.946,0.635,2.048,0.946,3.187,0.946c1.736,0,2.061-0.336,2.061-1.078
			c0-0.73-0.743-0.874-2.109-1.066c-2.371-0.335-3.604-0.767-3.604-2.695c0-1.976,1.198-2.683,3.701-2.683
			c1.809,0,2.911,0.419,3.593,0.874l-1.054,1.521c-0.563-0.371-1.604-0.683-2.563-0.683c-1.389,0-1.725,0.275-1.725,0.922
			c0,0.719,0.73,0.851,2.145,1.055c2.132,0.312,3.557,0.658,3.557,2.659c0,1.797-0.982,2.803-3.94,2.803
			C330.058,36.173,328.597,35.754,327.591,35.011z"/>
	</g>
	<g enable-background="new    ">
		<path fill="#FFFFFF" d="M167.631,42.426h1.988l3.581,8.936h-2.035l-0.576-1.461h-4.024l-0.575,1.461h-1.917L167.631,42.426z
			 M169.967,48.283l-1.39-3.534l-1.389,3.534H169.967z"/>
		<path fill="#FFFFFF" d="M173.417,46.917c0-3.186,1.736-4.575,4.684-4.575c1.617,0,2.646,0.432,3.485,1.281l-1.354,1.354
			c-0.539-0.526-1.174-0.838-2.144-0.838c-1.893,0-2.695,0.958-2.695,2.803c0,1.785,0.67,2.803,2.707,2.803
			c1.15,0,1.701-0.383,2.252-0.898l1.293,1.27c-0.706,0.731-1.652,1.378-3.665,1.378C174.663,51.493,173.417,49.853,173.417,46.917z
			"/>
		<path fill="#FFFFFF" d="M185.491,42.426h1.988l3.582,8.936h-2.037L188.45,49.9h-4.025l-0.574,1.461h-1.917L185.491,42.426z
			 M187.827,48.283l-1.39-3.534l-1.39,3.534H187.827z"/>
		<path fill="#FFFFFF" d="M192.116,42.485h4.12c2.36,0,3.366,0.659,3.366,2.288c0,1.03-0.371,1.677-1.186,1.964
			c1.041,0.252,1.425,0.923,1.425,2.181c0,1.929-1.245,2.443-3.63,2.443h-4.096V42.485z M196.308,46.031
			c1.043,0,1.307-0.348,1.307-0.971s-0.313-0.91-1.307-0.91h-2.264v1.881H196.308z M196.44,49.732c1.006,0,1.413-0.275,1.413-1.006
			c0-0.731-0.396-0.994-1.413-0.994h-2.396v2H196.44z"/>
		<path fill="#FFFFFF" d="M203.878,42.426h1.988l3.582,8.936h-2.036l-0.575-1.461h-4.024l-0.575,1.461h-1.916L203.878,42.426z
			 M206.214,48.283l-1.389-3.534l-1.39,3.534H206.214z"/>
		<path fill="#FFFFFF" d="M210.503,42.485h3.187c3.497,0,4.946,0.91,4.946,4.432c0,3.462-1.496,4.444-4.994,4.444h-3.139V42.485z
			 M213.749,49.648c2.42,0,2.91-0.73,2.91-2.731c0-2-0.406-2.671-2.945-2.671h-1.246v5.402H213.749z"/>
		<path fill="#FFFFFF" d="M219.439,46.917c0-3.329,1.868-4.575,4.695-4.575s4.708,1.246,4.708,4.575
			c0,3.343-1.881,4.588-4.708,4.588S219.439,50.26,219.439,46.917z M226.854,46.953c0-1.736-0.684-2.814-2.72-2.814
			s-2.719,1.078-2.719,2.814c0,1.737,0.683,2.827,2.719,2.827S226.854,48.69,226.854,46.953z"/>
		<path fill="#FFFFFF" d="M229.334,50.331l0.981-1.413c0.947,0.635,2.049,0.946,3.188,0.946c1.736,0,2.06-0.336,2.06-1.078
			c0-0.73-0.743-0.874-2.108-1.066c-2.371-0.335-3.605-0.767-3.605-2.695c0-1.976,1.198-2.683,3.701-2.683
			c1.809,0,2.911,0.419,3.594,0.874l-1.055,1.521c-0.563-0.371-1.604-0.683-2.563-0.683c-1.39,0-1.725,0.275-1.725,0.922
			c0,0.719,0.73,0.851,2.144,1.055c2.132,0.312,3.558,0.658,3.558,2.659c0,1.797-0.982,2.803-3.941,2.803
			C231.802,51.493,230.34,51.074,229.334,50.331z"/>
		<path fill="#FFFFFF" d="M241.408,42.485h2.563l2.408,6.062l2.407-6.062h2.552v8.876h-1.917v-5.929l-2.384,5.929h-1.485
			l-2.372-5.894v5.894h-1.772V42.485z"/>
		<path fill="#FFFFFF" d="M253.124,42.485h6.672v1.772h-4.708v1.726h4.588v1.713h-4.588v1.964h4.755v1.701h-6.719V42.485z"/>
		<path fill="#FFFFFF" d="M263.713,44.258h-3.079v-1.772h8.122v1.772h-3.066v7.104h-1.977V44.258z"/>
		<path fill="#FFFFFF" d="M271.427,42.426h1.988l3.582,8.936h-2.036l-0.575-1.461h-4.024l-0.575,1.461h-1.916L271.427,42.426z
			 M273.763,48.283l-1.389-3.534l-1.39,3.534H273.763z M272.864,39.814h2.264l-2.287,2.192h-1.665L272.864,39.814z"/>
		<path fill="#FFFFFF" d="M278.04,42.485h1.964v7.175h4.36v1.701h-6.324V42.485z"/>
		<path fill="#FFFFFF" d="M285.562,42.485h1.953v8.876h-1.953V42.485z"/>
		<path fill="#FFFFFF" d="M288.94,46.917c0-3.186,1.736-4.575,4.684-4.575c1.617,0,2.646,0.432,3.485,1.281l-1.354,1.354
			c-0.539-0.526-1.174-0.838-2.144-0.838c-1.893,0-2.695,0.958-2.695,2.803c0,1.785,0.67,2.803,2.707,2.803
			c1.15,0,1.701-0.383,2.252-0.898l1.293,1.27c-0.706,0.731-1.652,1.378-3.665,1.378C290.187,51.493,288.94,49.853,288.94,46.917z"
			/>
		<path fill="#FFFFFF" d="M297.745,46.917c0-3.329,1.868-4.575,4.695-4.575c2.826,0,4.707,1.246,4.707,4.575
			c0,3.343-1.881,4.588-4.707,4.588C299.613,51.505,297.745,50.26,297.745,46.917z M305.159,46.953c0-1.736-0.683-2.814-2.719-2.814
			c-2.037,0-2.719,1.078-2.719,2.814c0,1.737,0.682,2.827,2.719,2.827C304.477,49.78,305.159,48.69,305.159,46.953z"/>
		<path fill="#FFFFFF" d="M307.64,50.331l0.982-1.413c0.945,0.635,2.048,0.946,3.186,0.946c1.737,0,2.061-0.336,2.061-1.078
			c0-0.73-0.742-0.874-2.108-1.066c-2.372-0.335-3.604-0.767-3.604-2.695c0-1.976,1.197-2.683,3.701-2.683
			c1.809,0,2.91,0.419,3.593,0.874l-1.054,1.521c-0.563-0.371-1.605-0.683-2.563-0.683c-1.39,0-1.726,0.275-1.726,0.922
			c0,0.719,0.731,0.851,2.145,1.055c2.133,0.312,3.558,0.658,3.558,2.659c0,1.797-0.982,2.803-3.94,2.803
			C310.106,51.493,308.646,51.074,307.64,50.331z"/>
	</g>
	<circle fill="#FFFFFF" cx="235.291" cy="31.272" r="1.647"/>
	<g>
		<path fill="#231F20" d="M73.647,25.192c0,1.108-0.101,1.879-0.304,2.322c-0.199,0.438-0.533,0.658-1.001,0.658
			c-0.477,0-0.81-0.212-1.005-0.641c-0.197-0.425-0.294-1.206-0.294-2.339v-9.739h-4.678v9.693c0,1.292,0.06,2.346,0.18,3.16
			c0.116,0.816,0.305,1.496,0.566,2.043c0.522,1.111,1.233,1.969,2.135,2.561c0.902,0.597,1.933,0.892,3.096,0.892
			c1.153,0,2.185-0.295,3.084-0.892c0.9-0.591,1.612-1.45,2.135-2.561c0.267-0.556,0.461-1.242,0.583-2.066
			c0.121-0.823,0.181-1.871,0.181-3.137v-9.693h-4.677L73.647,25.192L73.647,25.192z"/>
		<polygon fill="#231F20" points="92.812,27.526 92.812,15.453 88.125,15.453 88.125,33.328 97.074,33.328 97.365,32.204 
			97.365,27.526 		"/>
		<path fill="#231F20" d="M64.271,27.169c0.178-0.85,0.269-1.773,0.269-2.764c0-1.321-0.167-2.547-0.503-3.675
			c-0.334-1.134-0.823-2.134-1.461-3.005c-0.646-0.872-1.397-1.533-2.245-1.993c-0.851-0.454-1.771-0.683-2.753-0.683
			c-0.991,0-1.911,0.225-2.759,0.671c-0.844,0.449-1.591,1.107-2.233,1.98c-0.636,0.854-1.124,1.85-1.46,2.991
			c-0.336,1.139-0.503,2.376-0.503,3.709c0,1.329,0.167,2.559,0.497,3.688c0.331,1.134,0.822,2.129,1.47,2.993
			c0.65,0.879,1.399,1.546,2.242,1.996c0.848,0.455,1.76,0.68,2.746,0.68c0.541,0,1.074-0.083,1.602-0.246
			c0.525-0.162,1.056-0.405,1.59-0.729l0.827,1.759l3.815-1.958l-1.963-3.001C63.814,28.826,64.087,28.023,64.271,27.169z
			 M59.752,24.841c-0.009,0.148-0.027,0.298-0.052,0.443l-2.944,0.791l1.061,1.652h-0.24c-0.679,0-1.212-0.299-1.606-0.897
			c-0.396-0.599-0.592-1.408-0.592-2.424c0-1.017,0.2-1.842,0.604-2.467c0.404-0.629,0.934-0.941,1.594-0.941
			c0.657,0,1.186,0.307,1.586,0.929c0.403,0.617,0.603,1.446,0.603,2.479C59.766,24.551,59.761,24.697,59.752,24.841z"/>
		<path fill="#231F20" d="M40.906,15.453l-4.338,16.711l0.134,1.163h4.586l0.402-2.246h3.53l0.418,2.246h5.033L46.12,15.453H40.906z
			 M42.473,26.83l0.402-2.025c0.194-1.024,0.327-1.815,0.4-2.371c0.071-0.55,0.116-1.07,0.132-1.559h0.081
			c0.018,0.488,0.061,1.008,0.135,1.559c0.067,0.555,0.201,1.347,0.398,2.371l0.396,2.025H42.473z"/>
		<path fill="#231F20" d="M29.82,15.453L28.85,19.8c-0.238,1.067-0.425,2.026-0.569,2.881c-0.142,0.853-0.249,1.661-0.321,2.417
			h-0.079c-0.088-1.205-0.329-2.739-0.721-4.601c-0.06-0.276-0.106-0.483-0.134-0.621l-0.925-4.422h-4.829l-2.223,17.875h4.59
			l0.567-7.081c0.038-0.546,0.069-1.087,0.104-1.626c0.034-0.537,0.063-1.083,0.095-1.632c0.05,0.514,0.127,1.053,0.221,1.63
			c0.095,0.571,0.214,1.182,0.364,1.837l1.494,6.872h2.783l1.495-6.872c0.143-0.655,0.264-1.266,0.362-1.837
			c0.096-0.577,0.171-1.116,0.223-1.63c0.026,0.542,0.055,1.087,0.092,1.63c0.034,0.541,0.071,1.083,0.106,1.628l0.567,7.081h4.154
			l0.302-1.163l-1.93-16.711H29.82V15.453z"/>
		<rect x="80.841" y="15.453" fill="#231F20" width="4.757" height="17.875"/>
		<path fill="#231F20" d="M111.06,31.672l-4.132-16.219h-5.213l-4.35,16.751v1.124h4.732l0.401-2.246h3.531l0.418,2.246h5.034
			l-0.371-1.457c-0.03-0.024-0.06-0.044-0.089-0.068L111.06,31.672z M103.282,26.83l0.4-2.025c0.194-1.024,0.328-1.815,0.4-2.371
			c0.07-0.55,0.116-1.07,0.135-1.559h0.079c0.017,0.488,0.06,1.008,0.133,1.559c0.068,0.555,0.204,1.347,0.401,2.371l0.398,2.025
			H103.282z"/>
		<path fill="#231F20" d="M118.873,22.28c-0.112-0.033-0.273-0.083-0.479-0.15c-1.298-0.379-1.948-0.826-1.948-1.33
			c0-0.267,0.088-0.479,0.267-0.629c0.179-0.15,0.429-0.225,0.755-0.225c0.428,0,0.868,0.122,1.321,0.359
			c0.456,0.242,0.91,0.592,1.357,1.045l1.424-4.675c-0.735-0.546-1.466-0.954-2.189-1.222c-0.724-0.271-1.458-0.404-2.206-0.404
			c-1.625,0-2.94,0.604-3.941,1.808c-1.001,1.206-1.502,2.767-1.502,4.689c0,1.238,0.256,2.271,0.774,3.1
			c0.516,0.83,1.259,1.409,2.232,1.734c0.165,0.049,0.396,0.117,0.694,0.208c0.92,0.258,1.378,0.638,1.378,1.133
			c0,0.289-0.09,0.514-0.276,0.681c-0.182,0.166-0.435,0.248-0.756,0.248c-0.456,0-0.947-0.15-1.473-0.445
			c-0.524-0.296-1.12-0.768-1.791-1.409l-1.454,4.875l0.051,0.199c0.822,0.631,1.645,1.11,2.474,1.433
			c0.852,0.333,1.703,0.499,2.558,0.499c1.667,0,3.021-0.624,4.062-1.88c1.041-1.253,1.562-2.871,1.562-4.846
			c0-1.212-0.26-2.247-0.775-3.102C120.474,23.122,119.769,22.554,118.873,22.28z"/>
		<path fill="#231F20" d="M120.236,42.051c-0.112-0.031-0.273-0.078-0.479-0.14c-1.299-0.356-1.948-0.779-1.948-1.253
			c0-0.252,0.087-0.453,0.267-0.596c0.179-0.141,0.429-0.213,0.755-0.213c0.428,0,0.868,0.116,1.32,0.34
			c0.455,0.228,0.909,0.559,1.357,0.986l1.423-4.408c-0.734-0.516-1.466-0.899-2.189-1.151c-0.723-0.256-1.457-0.38-2.206-0.38
			c-1.625,0-2.94,0.569-3.942,1.704c-1,1.139-1.501,2.608-1.501,4.422c0,1.168,0.257,2.143,0.774,2.923
			c0.516,0.782,1.258,1.327,2.231,1.635c0.166,0.048,0.397,0.11,0.694,0.197c0.92,0.241,1.378,0.602,1.378,1.067
			c0,0.271-0.09,0.483-0.276,0.642c-0.182,0.155-0.434,0.233-0.755,0.233c-0.456,0-0.947-0.142-1.473-0.418
			c-0.525-0.281-1.121-0.726-1.791-1.33l-1.454,4.597l0.051,0.188c0.823,0.595,1.646,1.046,2.474,1.351
			c0.852,0.313,1.703,0.472,2.558,0.472c1.667,0,3.021-0.59,4.062-1.772c1.04-1.183,1.561-2.707,1.561-4.568
			c0-1.143-0.259-2.119-0.775-2.924C121.837,42.848,121.133,42.311,120.236,42.051z"/>
		<polygon fill="#231F20" points="70.473,35.642 70.473,52.833 79.714,52.833 79.714,47.715 75.162,47.715 75.162,35.642 		"/>
		<polygon fill="#231F20" points="45.332,40.489 45.332,35.642 36.625,35.642 36.625,52.833 45.437,52.833 45.437,48.67 
			41.214,48.67 41.214,46.789 44.949,46.789 44.949,42.209 41.214,42.209 41.214,40.489 		"/>
		<polygon fill="#231F20" points="53.693,52.833 53.693,41.489 56.296,41.489 56.296,35.642 46.409,35.642 46.409,41.489 
			49.014,41.489 49.014,52.833 		"/>
		<path fill="#231F20" d="M112.424,51.859l-4.131-16.217h-5.213l-4.464,17.191h4.968l0.279-1.563h3.531l0.291,1.563h4.987
			l-0.198-0.774c-0.029-0.021-0.06-0.043-0.089-0.067L112.424,51.859z M104.645,47.02l0.403-2.026c0.193-1.023,0.327-1.813,0.4-2.37
			c0.07-0.551,0.115-1.072,0.134-1.561h0.079c0.018,0.487,0.062,1.01,0.133,1.561c0.07,0.557,0.205,1.347,0.401,2.37l0.396,2.026
			H104.645z"/>
		<path fill="#231F20" d="M33.272,35.642h-4.817l-0.972,4.347c-0.237,1.067-0.424,2.024-0.567,2.878s-0.251,1.664-0.323,2.419h-0.08
			c-0.087-1.205-0.325-2.739-0.719-4.601c-0.06-0.275-0.104-0.483-0.133-0.623l-0.927-4.42h-4.829l-2.139,17.191h4.562l0.514-6.397
			c0.035-0.545,0.068-1.088,0.102-1.625c0.034-0.539,0.064-1.082,0.095-1.633c0.051,0.512,0.127,1.053,0.22,1.629
			c0.096,0.57,0.217,1.184,0.365,1.838l1.346,6.188h3.08l1.346-6.188c0.143-0.654,0.265-1.268,0.361-1.838
			c0.096-0.576,0.174-1.117,0.225-1.629c0.025,0.54,0.055,1.086,0.092,1.629c0.032,0.541,0.069,1.084,0.105,1.629l0.512,6.397h4.567
			L33.272,35.642z"/>
		<rect x="81.238" y="35.642" fill="#231F20" width="4.757" height="17.191"/>
		<path fill="#231F20" d="M65.201,35.642h-5.213l-4.464,17.191h4.969l0.278-1.563h3.531l0.292,1.563h4.987L65.201,35.642z
			 M61.553,47.02l0.403-2.026c0.193-1.023,0.327-1.813,0.4-2.37c0.068-0.551,0.115-1.072,0.133-1.561h0.078
			c0.02,0.487,0.062,1.01,0.135,1.561c0.07,0.557,0.203,1.347,0.399,2.37L63.5,47.02H61.553z"/>
		<path fill="#231F20" d="M98.199,45.77c-0.553,0.547-1.059,0.938-1.526,1.19c-0.465,0.248-0.924,0.372-1.374,0.372
			c-0.747,0-1.345-0.294-1.788-0.887c-0.447-0.59-0.667-1.379-0.667-2.369c0-1.014,0.233-1.828,0.698-2.438
			c0.464-0.608,1.081-0.916,1.845-0.916c0.492,0,0.963,0.131,1.407,0.396c0.446,0.257,0.879,0.654,1.308,1.186v-6.24
			c-0.485-0.286-0.986-0.499-1.498-0.64c-0.514-0.142-1.033-0.211-1.562-0.211c-0.989,0-1.909,0.211-2.761,0.639
			c-0.851,0.424-1.601,1.053-2.248,1.883c-0.636,0.82-1.125,1.767-1.458,2.84c-0.338,1.074-0.504,2.242-0.504,3.501
			c0,1.705,0.293,3.209,0.886,4.522c0.186,0.414,0.403,0.803,0.645,1.172c0.137,0.215,0.278,0.424,0.433,0.623
			c0.442,0.564,0.931,1.035,1.467,1.412c0.008,0.006,0.015,0.012,0.023,0.02h0.003c0.242,0.168,0.492,0.32,0.754,0.449
			c0.853,0.43,1.772,0.642,2.761,0.642c0.529,0,1.048-0.071,1.562-0.212c0.512-0.143,1.013-0.355,1.498-0.643v-2.215L98.199,45.77z"
			/>
	</g>
	<path fill="#FFFFFF" d="M67.554,30.692c0.521,1.111,1.233,1.97,2.135,2.562c0.902,0.597,1.933,0.891,3.096,0.891
		c1.153,0,2.185-0.294,3.085-0.891c0.9-0.592,1.611-1.451,2.134-2.562c0.266-0.555,0.461-1.242,0.582-2.065
		c0.123-0.824,0.182-1.87,0.182-3.138v-9.693H74.09v9.738c0,1.109-0.1,1.881-0.304,2.323c-0.199,0.438-0.533,0.658-1.001,0.658
		c-0.476,0-0.81-0.213-1.005-0.642c-0.197-0.425-0.294-1.204-0.294-2.339v-9.738h-4.677v9.693c0,1.292,0.059,2.347,0.179,3.16
		C67.104,29.465,67.293,30.144,67.554,30.692z"/>
	<path fill="#FFFFFF" d="M46.563,15.796H41.35l-4.339,16.711l-1.93-16.711h-4.818l-0.971,4.346
		c-0.238,1.067-0.424,2.026-0.567,2.881c-0.143,0.853-0.25,1.662-0.322,2.417h-0.079c-0.087-1.205-0.328-2.74-0.72-4.601
		c-0.06-0.276-0.106-0.484-0.134-0.621l-0.926-4.422h-4.829L19.493,33.67h4.59l0.567-7.08c0.038-0.546,0.07-1.087,0.104-1.625
		c0.034-0.538,0.063-1.084,0.095-1.633c0.051,0.512,0.128,1.052,0.221,1.629c0.095,0.57,0.213,1.183,0.364,1.836l1.495,6.872h2.784
		l1.495-6.872c0.142-0.654,0.263-1.266,0.361-1.836c0.097-0.578,0.172-1.118,0.223-1.629c0.026,0.541,0.056,1.086,0.092,1.629
		c0.035,0.541,0.071,1.083,0.107,1.628l0.568,7.08h3.525h0.627h0.436h0.694h3.893l0.402-2.246h3.53l0.418,2.246h5.033L46.563,15.796
		z M42.916,27.173l0.403-2.026c0.193-1.024,0.326-1.815,0.399-2.371c0.071-0.55,0.116-1.07,0.132-1.558h0.08
		c0.018,0.488,0.062,1.008,0.135,1.558c0.068,0.556,0.203,1.347,0.399,2.371l0.397,2.026H42.916z"/>
	<rect x="81.285" y="15.796" fill="#FFFFFF" width="4.757" height="17.874"/>
	<path fill="#FFFFFF" d="M102.943,31.424h3.53l0.418,2.246h5.034l-0.373-1.457c-0.029-0.022-0.059-0.045-0.088-0.067l0.039-0.132
		l-4.132-16.218h-5.213l-4.35,16.751v0.052h-0.013l0.013-0.052v-4.679h-4.553V15.796h-4.686V33.67h8.405h0.543h0.291h1.083h3.648
		L102.943,31.424z M104.126,25.147c0.193-1.024,0.327-1.815,0.398-2.371c0.071-0.55,0.117-1.07,0.136-1.558h0.079
		c0.017,0.488,0.06,1.008,0.133,1.558c0.068,0.556,0.204,1.347,0.401,2.371l0.397,2.026h-1.946L104.126,25.147z"/>
	<path fill="#FFFFFF" d="M114.027,33.645c0.852,0.334,1.704,0.5,2.558,0.5c1.667,0,3.021-0.624,4.062-1.879
		c1.04-1.254,1.561-2.872,1.561-4.847c0-1.212-0.259-2.246-0.775-3.101c-0.516-0.854-1.22-1.42-2.117-1.694
		c-0.112-0.034-0.273-0.085-0.48-0.151c-1.298-0.379-1.948-0.825-1.948-1.329c0-0.267,0.088-0.479,0.268-0.629
		c0.179-0.15,0.429-0.225,0.755-0.225c0.428,0,0.868,0.121,1.32,0.358c0.456,0.242,0.91,0.593,1.357,1.046l1.424-4.675
		c-0.734-0.546-1.466-0.955-2.189-1.222c-0.724-0.272-1.457-0.403-2.206-0.403c-1.625,0-2.94,0.604-3.941,1.807
		c-1.001,1.206-1.502,2.767-1.502,4.689c0,1.238,0.257,2.272,0.774,3.1c0.516,0.83,1.259,1.408,2.232,1.733
		c0.166,0.051,0.397,0.118,0.694,0.209c0.92,0.258,1.379,0.638,1.379,1.134c0,0.288-0.091,0.512-0.276,0.679
		c-0.183,0.167-0.435,0.25-0.756,0.25c-0.456,0-0.947-0.151-1.473-0.446c-0.524-0.296-1.121-0.768-1.791-1.408l-1.454,4.874
		l0.05,0.199C112.376,32.845,113.199,33.322,114.027,33.645z"/>
	<path fill="#FFFFFF" d="M122.796,43.994c-0.515-0.805-1.22-1.342-2.116-1.6c-0.112-0.03-0.273-0.078-0.479-0.141
		c-1.299-0.357-1.948-0.777-1.948-1.253c0-0.253,0.088-0.453,0.267-0.595c0.179-0.143,0.429-0.213,0.756-0.213
		c0.428,0,0.868,0.115,1.32,0.339c0.456,0.228,0.91,0.56,1.357,0.985l1.423-4.408c-0.734-0.515-1.465-0.898-2.188-1.151
		c-0.724-0.254-1.457-0.379-2.206-0.379c-1.625,0-2.94,0.569-3.941,1.704c-1.001,1.137-1.502,2.607-1.502,4.422
		c0,1.166,0.257,2.141,0.774,2.922c0.517,0.783,1.259,1.329,2.231,1.635c0.166,0.047,0.397,0.109,0.695,0.196
		c0.92,0.243,1.379,0.603,1.379,1.067c0,0.272-0.091,0.484-0.276,0.642c-0.183,0.156-0.435,0.233-0.756,0.233
		c-0.456,0-0.947-0.141-1.473-0.418c-0.524-0.279-1.121-0.725-1.791-1.327l-1.453,4.595l0.05,0.188
		c0.823,0.596,1.646,1.047,2.474,1.351c0.853,0.315,1.704,0.472,2.558,0.472c1.667,0,3.021-0.59,4.062-1.773
		c1.04-1.18,1.561-2.704,1.561-4.567C123.571,45.773,123.312,44.799,122.796,43.994z"/>
	<polygon fill="#FFFFFF" points="75.604,35.984 70.917,35.984 70.917,53.176 80.158,53.176 80.158,48.057 75.604,48.057 	"/>
	<polygon fill="#FFFFFF" points="41.657,47.131 45.392,47.131 45.392,42.551 41.657,42.551 41.657,40.832 45.775,40.832 
		45.775,35.984 37.068,35.984 37.068,53.176 45.879,53.176 45.879,49.012 41.657,49.012 	"/>
	<polygon fill="#FFFFFF" points="56.74,35.984 46.852,35.984 46.852,41.832 49.456,41.832 49.456,53.176 54.136,53.176 
		54.136,41.832 56.74,41.832 	"/>
	<path fill="#FFFFFF" d="M112.828,52.333l0.04-0.132l-4.131-16.219h-5.213l-4.465,17.192h4.969l0.278-1.563h3.531l0.291,1.563h4.987
		l-0.197-0.774C112.888,52.378,112.857,52.357,112.828,52.333z M105.088,47.361l0.402-2.025c0.194-1.023,0.328-1.814,0.4-2.369
		c0.071-0.552,0.115-1.072,0.133-1.561h0.079c0.02,0.486,0.062,1.009,0.133,1.561c0.071,0.555,0.205,1.346,0.402,2.369l0.396,2.025
		H105.088z"/>
	<path fill="#FFFFFF" d="M28.898,35.984l-0.971,4.348c-0.237,1.066-0.425,2.025-0.567,2.879c-0.143,0.854-0.251,1.663-0.322,2.418
		h-0.08c-0.088-1.206-0.326-2.738-0.719-4.602c-0.061-0.275-0.105-0.482-0.133-0.622l-0.926-4.421h-4.829l-2.139,17.191h4.56
		l0.514-6.398c0.035-0.545,0.069-1.086,0.102-1.623c0.034-0.538,0.064-1.084,0.094-1.635c0.051,0.514,0.128,1.055,0.22,1.629
		c0.096,0.571,0.217,1.184,0.365,1.84l1.345,6.188h3.08l1.346-6.188c0.144-0.656,0.265-1.269,0.362-1.84
		c0.096-0.574,0.173-1.115,0.224-1.629c0.025,0.543,0.055,1.088,0.092,1.629c0.032,0.543,0.069,1.084,0.105,1.629l0.512,6.398H35.7
		l-1.986-17.191H28.898z"/>
	<rect x="81.681" y="35.984" fill="#FFFFFF" width="4.756" height="17.191"/>
	<path fill="#FFFFFF" d="M60.431,35.984l-4.464,17.191h4.97l0.278-1.564h3.531l0.292,1.564h4.987l-4.379-17.191H60.431z
		 M61.996,47.361l0.403-2.025c0.192-1.023,0.327-1.814,0.4-2.369c0.069-0.552,0.116-1.072,0.134-1.561h0.077
		c0.021,0.486,0.063,1.009,0.136,1.561c0.069,0.555,0.203,1.346,0.4,2.369l0.398,2.025H61.996z"/>
	<path fill="#FFFFFF" d="M95.742,47.674c-0.746,0-1.345-0.293-1.788-0.887c-0.446-0.59-0.668-1.379-0.668-2.368
		c0-1.014,0.233-1.828,0.698-2.437c0.465-0.609,1.081-0.916,1.845-0.916c0.492,0,0.963,0.131,1.407,0.395
		c0.446,0.258,0.879,0.655,1.307,1.188v-6.24c-0.484-0.286-0.986-0.499-1.498-0.641c-0.514-0.141-1.034-0.212-1.562-0.212
		c-0.988,0-1.908,0.212-2.761,0.64c-0.851,0.424-1.6,1.055-2.248,1.883c-0.637,0.82-1.125,1.768-1.458,2.84
		c-0.339,1.077-0.504,2.244-0.504,3.502c0,1.705,0.293,3.21,0.886,4.521c0.186,0.414,0.403,0.804,0.645,1.172
		c0.137,0.215,0.279,0.425,0.433,0.623c0.441,0.564,0.931,1.035,1.467,1.412c0.008,0.006,0.015,0.015,0.023,0.02h0.004
		c0.242,0.169,0.493,0.321,0.754,0.451c0.853,0.428,1.773,0.64,2.761,0.64c0.528,0,1.048-0.071,1.562-0.212
		c0.512-0.143,1.013-0.354,1.498-0.641v-2.215l0.099-4.078c-0.553,0.546-1.06,0.938-1.526,1.189
		C96.65,47.55,96.191,47.674,95.742,47.674z"/>
	<g>
		<path fill="#FFFFFF" d="M65.669,32.449l-1.778-2.525c0.366-0.755,0.639-1.559,0.822-2.412c0.179-0.85,0.27-1.772,0.27-2.763
			c0-1.321-0.168-2.547-0.504-3.676c-0.333-1.133-0.823-2.134-1.46-3.005c-0.647-0.872-1.397-1.533-2.246-1.992
			c-0.851-0.454-1.771-0.682-2.753-0.682c-0.992,0-1.911,0.225-2.759,0.67c-0.844,0.449-1.592,1.108-2.233,1.98
			c-0.637,0.853-1.125,1.85-1.46,2.991c-0.336,1.138-0.503,2.376-0.503,3.709c0,1.33,0.167,2.56,0.497,3.689
			c0.331,1.133,0.823,2.128,1.47,2.992c0.649,0.879,1.399,1.546,2.243,1.996c0.847,0.455,1.759,0.68,2.745,0.68
			c0.541,0,1.075-0.083,1.602-0.246c0.525-0.162,1.056-0.404,1.59-0.73l0.593,1.309L65.669,32.449z M60.196,25.184
			c-0.009,0.148-0.027,0.298-0.053,0.444l-2.944,0.791l1.06,1.651H58.02c-0.678,0-1.213-0.299-1.606-0.897
			c-0.396-0.6-0.592-1.409-0.592-2.425c0-1.018,0.201-1.842,0.604-2.467c0.404-0.63,0.934-0.941,1.594-0.941
			c0.657,0,1.186,0.307,1.586,0.928c0.403,0.618,0.603,1.446,0.603,2.48C60.208,24.894,60.205,25.04,60.196,25.184z"/>
		<polygon fill="#231F20" points="65.812,32.833 61.93,34.937 67.243,34.942 		"/>
	</g>
	<polygon fill="#FFFFFF" points="66.066,33.059 62.06,35.28 67.556,35.28 	"/>
</g>
</svg>
